{
    "asset" : {
        "generator" : "Khronos glTF Blender I/O v1.6.16",
        "version" : "2.0"
    },
    "scene" : 0,
    "scenes" : [
        {
            "name" : "Scene",
            "nodes" : [
                5
            ]
        }
    ],
    "nodes" : [
        {
            "mesh" : 0,
            "name" : "Sphere.019"
        },
        {
            "children" : [
                0
            ],
            "mesh" : 1,
            "name" : "block.rotate",
            "translation" : [
                -0.43043115735054016,
                0,
                0
            ]
        },
        {
            "mesh" : 2,
            "name" : "block.slide",
            "translation" : [
                -0.4304310083389282,
                0,
                0
            ]
        },
        {
            "mesh" : 3,
            "name" : "cube.b"
        },
        {
            "mesh" : 4,
            "name" : "Sphere.020"
        },
        {
            "children" : [
                1,
                2,
                3,
                4
            ],
            "mesh" : 5,
            "name" : "cube"
        }
    ],
    "materials" : [
        {
            "doubleSided" : true,
            "name" : "Material.002",
            "pbrMetallicRoughness" : {
                "metallicFactor" : 0.20149250328540802,
                "roughnessFactor" : 0.5820895433425903
            }
        },
        {
            "doubleSided" : true,
            "name" : "Material",
            "pbrMetallicRoughness" : {
                "baseColorFactor" : [
                    0.8348419070243835,
                    0.5822187066078186,
                    0.6106555461883545,
                    1
                ],
                "metallicFactor" : 0,
                "roughnessFactor" : 0.33582091331481934
            }
        },
        {
            "doubleSided" : true,
            "name" : "Material.001",
            "pbrMetallicRoughness" : {
                "baseColorFactor" : [
                    0.5349999070167542,
                    0.01762455888092518,
                    0.03354362025856972,
                    1
                ],
                "metallicFactor" : 0.014925375580787659,
                "roughnessFactor" : 0.48507463932037354
            }
        }
    ],
    "meshes" : [
        {
            "name" : "Sphere.012",
            "primitives" : [
                {
                    "attributes" : {
                        "POSITION" : 0,
                        "NORMAL" : 1,
                        "TEXCOORD_0" : 2
                    },
                    "indices" : 3,
                    "material" : 0
                }
            ]
        },
        {
            "name" : "Cube.005",
            "primitives" : [
                {
                    "attributes" : {
                        "POSITION" : 4,
                        "NORMAL" : 5,
                        "TEXCOORD_0" : 6
                    },
                    "indices" : 7,
                    "material" : 1
                }
            ]
        },
        {
            "name" : "Cube.006",
            "primitives" : [
                {
                    "attributes" : {
                        "POSITION" : 8,
                        "NORMAL" : 9,
                        "TEXCOORD_0" : 10
                    },
                    "indices" : 11,
                    "material" : 1
                }
            ]
        },
        {
            "name" : "Sphere.011",
            "primitives" : [
                {
                    "attributes" : {
                        "POSITION" : 12,
                        "NORMAL" : 13,
                        "TEXCOORD_0" : 14
                    },
                    "indices" : 15,
                    "material" : 2
                }
            ]
        },
        {
            "name" : "Sphere.014",
            "primitives" : [
                {
                    "attributes" : {
                        "POSITION" : 16,
                        "NORMAL" : 17,
                        "TEXCOORD_0" : 18
                    },
                    "indices" : 19,
                    "material" : 0
                }
            ]
        },
        {
            "name" : "Sphere.010",
            "primitives" : [
                {
                    "attributes" : {
                        "POSITION" : 20,
                        "NORMAL" : 21,
                        "TEXCOORD_0" : 22
                    },
                    "indices" : 23,
                    "material" : 1
                }
            ]
        }
    ],
    "accessors" : [
        {
            "bufferView" : 0,
            "componentType" : 5126,
            "count" : 4908,
            "max" : [
                0.8527683019638062,
                0.15455883741378784,
                0.8625491261482239
            ],
            "min" : [
                -0.8527683019638062,
                -0.15455882251262665,
                -0.8625491261482239
            ],
            "type" : "VEC3"
        },
        {
            "bufferView" : 1,
            "componentType" : 5126,
            "count" : 4908,
            "type" : "VEC3"
        },
        {
            "bufferView" : 2,
            "componentType" : 5126,
            "count" : 4908,
            "type" : "VEC2"
        },
        {
            "bufferView" : 3,
            "componentType" : 5123,
            "count" : 7584,
            "type" : "SCALAR"
        },
        {
            "bufferView" : 4,
            "componentType" : 5126,
            "count" : 1012,
            "max" : [
                1.0644311904907227,
                0.6000003814697266,
                0.8999999165534973
            ],
            "min" : [
                -1.0695688724517822,
                -0.5999996662139893,
                -0.9000001549720764
            ],
            "type" : "VEC3"
        },
        {
            "bufferView" : 5,
            "componentType" : 5126,
            "count" : 1012,
            "type" : "VEC3"
        },
        {
            "bufferView" : 6,
            "componentType" : 5126,
            "count" : 1012,
            "type" : "VEC2"
        },
        {
            "bufferView" : 7,
            "componentType" : 5123,
            "count" : 1938,
            "type" : "SCALAR"
        },
        {
            "bufferView" : 8,
            "componentType" : 5126,
            "count" : 380,
            "max" : [
                1.066993236541748,
                1.1998217105865479,
                0.9000000953674316
            ],
            "min" : [
                -1.0670068264007568,
                -1.2001783847808838,
                -0.8999999761581421
            ],
            "type" : "VEC3"
        },
        {
            "bufferView" : 9,
            "componentType" : 5126,
            "count" : 380,
            "type" : "VEC3"
        },
        {
            "bufferView" : 10,
            "componentType" : 5126,
            "count" : 380,
            "type" : "VEC2"
        },
        {
            "bufferView" : 11,
            "componentType" : 5123,
            "count" : 684,
            "type" : "SCALAR"
        },
        {
            "bufferView" : 12,
            "componentType" : 5126,
            "count" : 8524,
            "max" : [
                3.711378335952759,
                2.6388561725616455,
                0.8934183120727539
            ],
            "min" : [
                -3.711378335952759,
                -2.6389033794403076,
                -0.8934175968170166
            ],
            "type" : "VEC3"
        },
        {
            "bufferView" : 13,
            "componentType" : 5126,
            "count" : 8524,
            "type" : "VEC3"
        },
        {
            "bufferView" : 14,
            "componentType" : 5126,
            "count" : 8524,
            "type" : "VEC2"
        },
        {
            "bufferView" : 15,
            "componentType" : 5123,
            "count" : 14448,
            "type" : "SCALAR"
        },
        {
            "bufferView" : 16,
            "componentType" : 5126,
            "count" : 9732,
            "max" : [
                2.883388042449951,
                2.714491367340088,
                0.5546489357948303
            ],
            "min" : [
                -2.883388042449951,
                -2.714491367340088,
                -0.5546489357948303
            ],
            "type" : "VEC3"
        },
        {
            "bufferView" : 17,
            "componentType" : 5126,
            "count" : 9732,
            "type" : "VEC3"
        },
        {
            "bufferView" : 18,
            "componentType" : 5126,
            "count" : 9732,
            "type" : "VEC2"
        },
        {
            "bufferView" : 19,
            "componentType" : 5123,
            "count" : 15168,
            "type" : "SCALAR"
        },
        {
            "bufferView" : 20,
            "componentType" : 5126,
            "count" : 15026,
            "max" : [
                3.646350622177124,
                3.2247021198272705,
                0.9000003337860107
            ],
            "min" : [
                -3.6463515758514404,
                -3.2247021198272705,
                -0.8999996185302734
            ],
            "type" : "VEC3"
        },
        {
            "bufferView" : 21,
            "componentType" : 5126,
            "count" : 15026,
            "type" : "VEC3"
        },
        {
            "bufferView" : 22,
            "componentType" : 5126,
            "count" : 15026,
            "type" : "VEC2"
        },
        {
            "bufferView" : 23,
            "componentType" : 5123,
            "count" : 26112,
            "type" : "SCALAR"
        }
    ],
    "bufferViews" : [
        {
            "buffer" : 0,
            "byteLength" : 58896,
            "byteOffset" : 0
        },
        {
            "buffer" : 0,
            "byteLength" : 58896,
            "byteOffset" : 58896
        },
        {
            "buffer" : 0,
            "byteLength" : 39264,
            "byteOffset" : 117792
        },
        {
            "buffer" : 0,
            "byteLength" : 15168,
            "byteOffset" : 157056
        },
        {
            "buffer" : 0,
            "byteLength" : 12144,
            "byteOffset" : 172224
        },
        {
            "buffer" : 0,
            "byteLength" : 12144,
            "byteOffset" : 184368
        },
        {
            "buffer" : 0,
            "byteLength" : 8096,
            "byteOffset" : 196512
        },
        {
            "buffer" : 0,
            "byteLength" : 3876,
            "byteOffset" : 204608
        },
        {
            "buffer" : 0,
            "byteLength" : 4560,
            "byteOffset" : 208484
        },
        {
            "buffer" : 0,
            "byteLength" : 4560,
            "byteOffset" : 213044
        },
        {
            "buffer" : 0,
            "byteLength" : 3040,
            "byteOffset" : 217604
        },
        {
            "buffer" : 0,
            "byteLength" : 1368,
            "byteOffset" : 220644
        },
        {
            "buffer" : 0,
            "byteLength" : 102288,
            "byteOffset" : 222012
        },
        {
            "buffer" : 0,
            "byteLength" : 102288,
            "byteOffset" : 324300
        },
        {
            "buffer" : 0,
            "byteLength" : 68192,
            "byteOffset" : 426588
        },
        {
            "buffer" : 0,
            "byteLength" : 28896,
            "byteOffset" : 494780
        },
        {
            "buffer" : 0,
            "byteLength" : 116784,
            "byteOffset" : 523676
        },
        {
            "buffer" : 0,
            "byteLength" : 116784,
            "byteOffset" : 640460
        },
        {
            "buffer" : 0,
            "byteLength" : 77856,
            "byteOffset" : 757244
        },
        {
            "buffer" : 0,
            "byteLength" : 30336,
            "byteOffset" : 835100
        },
        {
            "buffer" : 0,
            "byteLength" : 180312,
            "byteOffset" : 865436
        },
        {
            "buffer" : 0,
            "byteLength" : 180312,
            "byteOffset" : 1045748
        },
        {
            "buffer" : 0,
            "byteLength" : 120208,
            "byteOffset" : 1226060
        },
        {
            "buffer" : 0,
            "byteLength" : 52224,
            "byteOffset" : 1346268
        }
    ],
    "buffers" : [
        {
            "byteLength" : 1398492,
            "uri" : "data:application/octet-stream;base64,"
        }
    ]
}
